<svg xmlns="http://www.w3.org/2000/svg" xmlns:xlink="http://www.w3.org/1999/xlink" width="750" zoomAndPan="magnify" viewBox="0 0 562.5 89.999999" height="120" preserveAspectRatio="xMidYMid meet" version="1.0"><defs><g/><clipPath id="87311db97f"><path d="M 9 12.679688 L 553.925781 12.679688 L 553.925781 77.765625 L 9 77.765625 Z M 9 12.679688 " clip-rule="nonzero"/></clipPath><clipPath id="3737fb0a93"><path d="M 26.25 12.679688 L 536.25 12.679688 C 540.824219 12.679688 545.210938 14.5 548.449219 17.734375 C 551.683594 20.96875 553.5 25.355469 553.5 29.929688 L 553.5 60.148438 C 553.5 64.722656 551.683594 69.113281 548.449219 72.347656 C 545.210938 75.582031 540.824219 77.398438 536.25 77.398438 L 26.25 77.398438 C 21.675781 77.398438 17.289062 75.582031 14.050781 72.347656 C 10.816406 69.113281 9 64.722656 9 60.148438 L 9 29.929688 C 9 25.355469 10.816406 20.96875 14.050781 17.734375 C 17.289062 14.5 21.675781 12.679688 26.25 12.679688 " clip-rule="nonzero"/></clipPath><clipPath id="e91d068d8d"><path d="M 239.335938 37 L 277 37 L 277 70.699219 L 239.335938 70.699219 Z M 239.335938 37 " clip-rule="nonzero"/></clipPath><clipPath id="fa9b70162a"><path d="M 276 19.699219 L 314.335938 19.699219 L 314.335938 54 L 276 54 Z M 276 19.699219 " clip-rule="nonzero"/></clipPath></defs><g clip-path="url(#87311db97f)"><g clip-path="url(#3737fb0a93)"><path fill="#0a1357" d="M 9 12.679688 L 553.289062 12.679688 L 553.289062 77.128906 L 9 77.128906 Z M 9 12.679688 " fill-opacity="1" fill-rule="nonzero"/></g></g><g clip-path="url(#e91d068d8d)"><path fill="#cb6ce6" d="M 264.589844 60.925781 L 264.589844 65.542969 L 243.917969 55.832031 L 243.917969 52.085938 L 264.589844 42.375 L 264.589844 46.992188 L 248.957031 53.914062 L 248.957031 54 Z M 276.871094 37.246094 L 242.296875 37.246094 C 240.664062 37.246094 239.339844 38.582031 239.339844 40.234375 L 239.339844 67.683594 C 239.339844 69.332031 240.664062 70.671875 242.296875 70.671875 L 267.273438 70.671875 L 276.871094 37.246094 " fill-opacity="1" fill-rule="nonzero"/></g><g clip-path="url(#fa9b70162a)"><path fill="#0097b2" d="M 309.765625 38.433594 L 289.09375 48.011719 L 289.09375 43.394531 L 305.070312 36.472656 L 305.070312 36.386719 L 289.09375 29.460938 L 289.09375 24.84375 L 309.765625 34.425781 Z M 286.46875 19.714844 L 276.871094 53.140625 L 311.386719 53.140625 C 313.019531 53.140625 314.34375 51.804688 314.34375 50.152344 L 314.34375 22.703125 C 314.34375 21.054688 313.019531 19.714844 311.386719 19.714844 L 286.46875 19.714844 " fill-opacity="1" fill-rule="nonzero"/></g><g fill="#ffffff" fill-opacity="1"><g transform="translate(55.435636, 61.561301)"><g><path d="M 8.625 -6.121094 L 19.660156 -6.121094 C 20.171875 -6.121094 20.402344 -5.84375 20.402344 -5.378906 L 20.402344 -0.742188 C 20.402344 -0.230469 20.171875 0 19.660156 0 L 3.058594 0 C 2.597656 0 2.320312 -0.230469 2.320312 -0.742188 L 2.320312 -36.355469 C 2.320312 -36.816406 2.597656 -37.09375 3.058594 -37.09375 L 7.882812 -37.09375 C 8.394531 -37.09375 8.625 -36.816406 8.625 -36.355469 Z M 8.625 -6.121094 "/></g></g></g><g fill="#ffffff" fill-opacity="1"><g transform="translate(78.155799, 61.561301)"><g><path d="M 2.320312 -6.675781 C 2.320312 -2.320312 4.636719 0 8.996094 0 L 14.1875 0 C 18.546875 0 20.867188 -2.320312 20.867188 -6.675781 L 20.867188 -30.417969 C 20.867188 -34.777344 18.546875 -37.09375 14.1875 -37.09375 L 8.996094 -37.09375 C 4.636719 -37.09375 2.320312 -34.777344 2.320312 -30.417969 Z M 10.339844 -5.980469 C 9.136719 -5.980469 8.484375 -6.585938 8.484375 -7.835938 L 8.484375 -29.257812 C 8.484375 -30.464844 9.136719 -31.113281 10.339844 -31.113281 L 13.03125 -31.113281 C 14.234375 -31.113281 14.882812 -30.464844 14.882812 -29.257812 L 14.882812 -7.835938 C 14.882812 -6.585938 14.234375 -5.980469 13.03125 -5.980469 Z M 10.339844 -5.980469 "/></g></g></g><g fill="#ffffff" fill-opacity="1"><g transform="translate(101.339637, 61.561301)"><g><path d="M 16.554688 -37.09375 C 16.042969 -37.09375 15.8125 -36.816406 15.8125 -36.355469 L 15.8125 -16.785156 L 15.535156 -16.785156 L 8.484375 -36.492188 C 8.347656 -36.910156 8.066406 -37.09375 7.652344 -37.09375 L 3.058594 -37.09375 C 2.597656 -37.09375 2.320312 -36.816406 2.320312 -36.355469 L 2.320312 -0.742188 C 2.320312 -0.277344 2.597656 0 3.058594 0 L 7.882812 0 C 8.394531 0 8.625 -0.277344 8.625 -0.742188 L 8.625 -20.402344 L 8.855469 -20.402344 L 15.949219 -0.601562 C 16.089844 -0.183594 16.367188 0 16.785156 0 L 21.375 0 C 21.839844 0 22.117188 -0.277344 22.117188 -0.742188 L 22.117188 -36.355469 C 22.117188 -36.816406 21.839844 -37.09375 21.375 -37.09375 Z M 16.554688 -37.09375 "/></g></g></g><g fill="#ffffff" fill-opacity="1"><g transform="translate(125.775404, 61.561301)"><g><path d="M 2.320312 -0.742188 C 2.320312 -0.230469 2.550781 0 3.058594 0 L 14.1875 0 C 18.546875 0 20.867188 -2.320312 20.867188 -6.675781 L 20.867188 -30.371094 C 20.867188 -34.730469 18.546875 -37.09375 14.1875 -37.09375 L 3.058594 -37.09375 C 2.550781 -37.09375 2.320312 -36.816406 2.320312 -36.355469 Z M 8.625 -6.121094 L 8.625 -30.976562 L 12.890625 -30.976562 C 14.097656 -30.976562 14.746094 -30.324219 14.746094 -29.074219 L 14.746094 -7.976562 C 14.746094 -6.722656 14.097656 -6.121094 12.890625 -6.121094 Z M 8.625 -6.121094 "/></g></g></g><g fill="#ffffff" fill-opacity="1"><g transform="translate(148.959243, 61.561301)"><g><path d="M 2.320312 -6.675781 C 2.320312 -2.320312 4.636719 0 8.996094 0 L 14.1875 0 C 18.546875 0 20.867188 -2.320312 20.867188 -6.675781 L 20.867188 -30.417969 C 20.867188 -34.777344 18.546875 -37.09375 14.1875 -37.09375 L 8.996094 -37.09375 C 4.636719 -37.09375 2.320312 -34.777344 2.320312 -30.417969 Z M 10.339844 -5.980469 C 9.136719 -5.980469 8.484375 -6.585938 8.484375 -7.835938 L 8.484375 -29.257812 C 8.484375 -30.464844 9.136719 -31.113281 10.339844 -31.113281 L 13.03125 -31.113281 C 14.234375 -31.113281 14.882812 -30.464844 14.882812 -29.257812 L 14.882812 -7.835938 C 14.882812 -6.585938 14.234375 -5.980469 13.03125 -5.980469 Z M 10.339844 -5.980469 "/></g></g></g><g fill="#ffffff" fill-opacity="1"><g transform="translate(172.143081, 61.561301)"><g><path d="M 16.554688 -37.09375 C 16.042969 -37.09375 15.8125 -36.816406 15.8125 -36.355469 L 15.8125 -16.785156 L 15.535156 -16.785156 L 8.484375 -36.492188 C 8.347656 -36.910156 8.066406 -37.09375 7.652344 -37.09375 L 3.058594 -37.09375 C 2.597656 -37.09375 2.320312 -36.816406 2.320312 -36.355469 L 2.320312 -0.742188 C 2.320312 -0.277344 2.597656 0 3.058594 0 L 7.882812 0 C 8.394531 0 8.625 -0.277344 8.625 -0.742188 L 8.625 -20.402344 L 8.855469 -20.402344 L 15.949219 -0.601562 C 16.089844 -0.183594 16.367188 0 16.785156 0 L 21.375 0 C 21.839844 0 22.117188 -0.277344 22.117188 -0.742188 L 22.117188 -36.355469 C 22.117188 -36.816406 21.839844 -37.09375 21.375 -37.09375 Z M 16.554688 -37.09375 "/></g></g></g><g fill="#ffffff" fill-opacity="1"><g transform="translate(357.260213, 63.462268)"><g><path d="M 2.132812 -37.09375 C 1.667969 -37.09375 1.390625 -36.816406 1.390625 -36.355469 L 1.390625 -31.71875 C 1.390625 -31.253906 1.667969 -30.976562 2.132812 -30.976562 L 7.511719 -30.976562 L 7.511719 -0.742188 C 7.511719 -0.230469 7.789062 0 8.253906 0 L 13.078125 0 C 13.585938 0 13.816406 -0.230469 13.816406 -0.742188 L 13.816406 -30.976562 L 19.195312 -30.976562 C 19.707031 -30.976562 19.9375 -31.253906 19.9375 -31.71875 L 19.9375 -36.355469 C 19.9375 -36.816406 19.707031 -37.09375 19.195312 -37.09375 Z M 2.132812 -37.09375 "/></g></g></g><g fill="#ffffff" fill-opacity="1"><g transform="translate(378.589349, 63.462268)"><g><path d="M 21.375 -30.417969 C 21.375 -34.777344 19.058594 -37.09375 14.699219 -37.09375 L 3.058594 -37.09375 C 2.597656 -37.09375 2.320312 -36.816406 2.320312 -36.355469 L 2.320312 -0.742188 C 2.320312 -0.277344 2.597656 0 3.058594 0 L 7.882812 0 C 8.347656 0 8.625 -0.277344 8.625 -0.742188 L 8.625 -12.425781 L 11.824219 -12.425781 L 14.929688 -0.648438 C 15.023438 -0.230469 15.253906 0 15.71875 0 L 20.542969 0 C 21.050781 0 21.328125 -0.277344 21.191406 -0.835938 L 17.992188 -12.984375 C 20.21875 -13.957031 21.375 -15.996094 21.375 -19.105469 Z M 8.625 -18.546875 L 8.625 -30.976562 L 13.214844 -30.976562 C 14.421875 -30.976562 15.070312 -30.324219 15.070312 -29.121094 L 15.070312 -20.402344 C 15.070312 -19.195312 14.421875 -18.546875 13.214844 -18.546875 Z M 8.625 -18.546875 "/></g></g></g><g fill="#ffffff" fill-opacity="1"><g transform="translate(402.283241, 63.462268)"><g><path d="M 24.667969 0 C 25.226562 0 25.410156 -0.277344 25.316406 -0.789062 L 17.621094 -36.445312 C 17.527344 -36.910156 17.25 -37.09375 16.832031 -37.09375 L 10.386719 -37.09375 C 9.96875 -37.09375 9.691406 -36.910156 9.597656 -36.445312 L 1.902344 -0.789062 C 1.761719 -0.277344 1.992188 0 2.503906 0 L 7.464844 0 C 7.882812 0 8.113281 -0.230469 8.207031 -0.648438 L 9.460938 -7.417969 L 17.714844 -7.417969 L 19.011719 -0.648438 C 19.105469 -0.230469 19.335938 0 19.753906 0 Z M 16.554688 -12.796875 L 10.617188 -12.796875 L 13.585938 -28.980469 Z M 16.554688 -12.796875 "/></g></g></g><g fill="#ffffff" fill-opacity="1"><g transform="translate(429.454701, 63.462268)"><g><path d="M 16.554688 -37.09375 C 16.042969 -37.09375 15.8125 -36.816406 15.8125 -36.355469 L 15.8125 -16.785156 L 15.535156 -16.785156 L 8.484375 -36.492188 C 8.347656 -36.910156 8.066406 -37.09375 7.652344 -37.09375 L 3.058594 -37.09375 C 2.597656 -37.09375 2.320312 -36.816406 2.320312 -36.355469 L 2.320312 -0.742188 C 2.320312 -0.277344 2.597656 0 3.058594 0 L 7.882812 0 C 8.394531 0 8.625 -0.277344 8.625 -0.742188 L 8.625 -20.402344 L 8.855469 -20.402344 L 15.949219 -0.601562 C 16.089844 -0.183594 16.367188 0 16.785156 0 L 21.375 0 C 21.839844 0 22.117188 -0.277344 22.117188 -0.742188 L 22.117188 -36.355469 C 22.117188 -36.816406 21.839844 -37.09375 21.375 -37.09375 Z M 16.554688 -37.09375 "/></g></g></g><g fill="#ffffff" fill-opacity="1"><g transform="translate(453.890468, 63.462268)"><g><path d="M 8.996094 -37.09375 C 4.683594 -37.09375 2.320312 -34.777344 2.320312 -30.417969 L 2.320312 -19.476562 C 2.320312 -18.59375 2.734375 -18.039062 3.570312 -17.757812 L 14.558594 -14.144531 L 14.558594 -7.976562 C 14.558594 -6.722656 13.910156 -6.121094 12.707031 -6.121094 L 10.480469 -6.121094 C 9.320312 -6.121094 8.625 -6.722656 8.625 -7.976562 L 8.625 -11.546875 C 8.625 -12.054688 8.394531 -12.289062 7.882812 -12.289062 L 3.058594 -12.289062 C 2.597656 -12.289062 2.320312 -12.054688 2.320312 -11.546875 L 2.320312 -6.675781 C 2.320312 -2.320312 4.683594 0 8.996094 0 L 14.1875 0 C 18.546875 0 20.867188 -2.320312 20.867188 -6.675781 L 20.867188 -17.386719 C 20.867188 -18.269531 20.449219 -18.78125 19.660156 -19.105469 L 8.625 -22.722656 L 8.625 -29.121094 C 8.625 -30.324219 9.320312 -30.976562 10.480469 -30.976562 L 12.707031 -30.976562 C 13.957031 -30.976562 14.558594 -30.324219 14.558594 -29.121094 L 14.558594 -25.503906 C 14.558594 -25.039062 14.839844 -24.761719 15.300781 -24.761719 L 20.125 -24.761719 C 20.632812 -24.761719 20.867188 -25.039062 20.867188 -25.503906 L 20.867188 -30.417969 C 20.867188 -34.777344 18.546875 -37.09375 14.1875 -37.09375 Z M 8.996094 -37.09375 "/></g></g></g><g fill="#ffffff" fill-opacity="1"><g transform="translate(477.074307, 63.462268)"><g><path d="M 3.058594 -37.09375 C 2.550781 -37.09375 2.320312 -36.816406 2.320312 -36.355469 L 2.320312 -0.742188 C 2.320312 -0.277344 2.550781 0 3.058594 0 L 7.882812 0 C 8.347656 0 8.625 -0.277344 8.625 -0.742188 L 8.625 -36.355469 C 8.625 -36.816406 8.347656 -37.09375 7.882812 -37.09375 Z M 3.058594 -37.09375 "/></g></g></g><g fill="#ffffff" fill-opacity="1"><g transform="translate(488.017082, 63.462268)"><g><path d="M 2.132812 -37.09375 C 1.667969 -37.09375 1.390625 -36.816406 1.390625 -36.355469 L 1.390625 -31.71875 C 1.390625 -31.253906 1.667969 -30.976562 2.132812 -30.976562 L 7.511719 -30.976562 L 7.511719 -0.742188 C 7.511719 -0.230469 7.789062 0 8.253906 0 L 13.078125 0 C 13.585938 0 13.816406 -0.230469 13.816406 -0.742188 L 13.816406 -30.976562 L 19.195312 -30.976562 C 19.707031 -30.976562 19.9375 -31.253906 19.9375 -31.71875 L 19.9375 -36.355469 C 19.9375 -36.816406 19.707031 -37.09375 19.195312 -37.09375 Z M 2.132812 -37.09375 "/></g></g></g></svg>